<svg xmlns="http://www.w3.org/2000/svg" viewBox="0 0 60 60"><path d="M4.802 22.793a.999.999 0 0 0-1.414 0A11.503 11.503 0 0 0 0 30.983c0 3.097 1.203 6.006 3.388 8.19a.997.997 0 0 0 1.414 0 .999.999 0 0 0 0-1.414A9.517 9.517 0 0 1 2 30.983c0-2.563.995-4.97 2.802-6.776a1 1 0 0 0 0-1.414z"/><path d="M8.305 37.19a.999.999 0 0 0 .707-1.707 6.565 6.565 0 0 1 0-9.276.999.999 0 1 0-1.414-1.414c-3.337 3.337-3.337 8.768 0 12.104a.993.993 0 0 0 .707.293zm48.307-14.397a.999.999 0 1 0-1.414 1.414A9.517 9.517 0 0 1 58 30.983a9.517 9.517 0 0 1-2.802 6.776.999.999 0 1 0 1.414 1.414A11.502 11.502 0 0 0 60 30.983c0-3.097-1.203-6.005-3.388-8.19z"/><path d="M50.988 24.793a.999.999 0 0 0 0 1.414 6.565 6.565 0 0 1 0 9.276.999.999 0 1 0 1.414 1.414c3.337-3.337 3.337-8.768 0-12.104a.999.999 0 0 0-1.414 0z"/><path d="M47.025 31.5v-8.994c.043-6.857-4.568-11.405-8.53-13.216A19.288 19.288 0 0 0 35 8.112V7.5c0-2.757-2.243-5-5-5s-5 2.243-5 5v.706c-1.079.283-2.139.629-3.146 1.093C17.476 11.317 13.04 16.181 13 22.5v9c0 6.388-2.256 11.869-6.705 16.291a1.002 1.002 0 0 0 .535 1.695l9.491 1.639c1.79.309 3.415.556 4.944.758 1.745 3.422 5.172 5.618 8.918 5.618 3.747 0 7.175-2.198 8.919-5.621a124.04 124.04 0 0 0 4.92-.755l9.49-1.639a1 1 0 0 0 .535-1.695c-4.66-4.631-7.022-10.112-7.022-16.291zM27 7.5c0-1.654 1.346-3 3-3s3 1.346 3 3v.193a20.176 20.176 0 0 0-6 .05V7.5zm-8 16h-.006A1.001 1.001 0 0 1 18 22.494c.03-4.682 3.752-7.643 5.948-8.654 3.849-1.775 8.594-1.772 12.469-.002a1 1 0 1 1-.832 1.818c-3.353-1.533-7.469-1.537-10.799 0-1.767.814-4.762 3.173-4.785 6.85A1.001 1.001 0 0 1 19 23.5zm17.605 28.678c-1.519 2.062-3.888 3.322-6.423 3.322-2.534 0-4.902-1.26-6.421-3.32h.001c.392.04.772.073 1.152.105.187.016.379.036.564.051.137.011.269.018.404.027 2.906.212 5.583.213 8.486.006.17-.012.336-.021.508-.034.214-.017.436-.039.654-.059.343-.03.684-.059 1.036-.095l.039-.003z"/></svg>