<svg fill="#fff" xmlns="http://www.w3.org/2000/svg" viewBox="0 0 315 315"><path d="M307.5 136.892h-19.791V117.1c0-4.143-3.357-7.5-7.5-7.5h-26.717a7.499 7.499 0 0 0-7.5 7.5v19.792h-19.791a7.499 7.499 0 0 0-7.5 7.5v26.717c0 4.143 3.357 7.5 7.5 7.5h19.791v19.792a7.5 7.5 0 0 0 7.5 7.5h26.717a7.5 7.5 0 0 0 7.5-7.5v-19.792H307.5c4.143 0 7.5-3.357 7.5-7.5v-26.717c0-4.143-3.357-7.5-7.5-7.5zM101.906 104.16c9.088 0 17.823 2.45 25.274 7.087l8.513 5.825a7.5 7.5 0 0 0 9.514-.861l24.828-24.596a7.5 7.5 0 0 0-1.037-11.514l-14.43-9.896a7.523 7.523 0 0 0-.922-.539l-13.979-6.902a7.33 7.33 0 0 0-.566-.252 102.259 102.259 0 0 0-37.708-7.165c-26.757 0-51.996 10.27-71.068 28.915C10.958 103.196.188 128.943.002 156.761c-.187 27.824 10.239 53.72 29.355 72.916 18.968 19.049 45.879 29.975 73.834 29.975 27.658 0 53.608-10.739 71.195-29.463 13.931-14.831 22.48-34.641 24.727-57.288.021-.215.034-.43.036-.645l.26-20.345a7.348 7.348 0 0 0-.09-1.257l-1.09-6.953a7.5 7.5 0 0 0-7.409-6.339h-86.672a7.5 7.5 0 0 0-7.5 7.5v29.982a7.5 7.5 0 0 0 7.5 7.5h44.186c-2.025 4.439-5.216 9.12-9.251 13.482-8.801 9.518-21.926 14.977-36.01 14.977-14.383 0-28.157-5.636-37.79-15.462-20.052-20.448-19.822-56.077.489-76.245 9.562-9.491 22.733-14.936 36.134-14.936z"/></svg>