<svg fill="#d32326" xmlns="http://www.w3.org/2000/svg" viewBox="0 0 512 512"><path d="M125.585 188.377h144.906v19.321H125.585zm0 67.623h193.208v19.321H125.585zm0 67.623h193.208v19.321H125.585z"/><path d="M464.887 33.811H49.528C22.882 33.811 0 54.297 0 80.958v173.783c0 26.66 21.67 48.354 48.302 48.354 10.915 0 21.736-3.774 28.981-9.899v174.125c0 5.335 5.533 10.868 10.868 10.868h338.113c5.335 0 8.453-5.533 8.453-10.868V293.196c9.66 6.125 18.066 9.899 28.981 9.899 26.632 0 48.302-21.693 48.302-48.354V80.958c0-26.661-20.467-47.147-47.113-47.147zM415.396 254.83v204.038H96.604V158.189c0-5.326 5.571-8.453 10.939-8.453h299.33c5.368 0 8.524 3.127 8.524 8.453v96.641zm77.283-.089c0 16.009-13 29.033-28.981 29.033s-28.981-12.986-28.981-28.943V149.737h19.321v-19.321H57.963v19.321h19.321v105.094c0 15.958-13 28.943-28.981 28.943-15.981 0-28.981-13.024-28.981-29.033V80.958c0-16.009 14.217-27.826 30.208-27.826h415.359c15.991 0 27.792 11.816 27.792 27.826v173.783z"/></svg>