<svg fill="#333" version="1" xmlns="http://www.w3.org/2000/svg" viewBox="0 0 117 20"><path d="M97.5 15.5h6.4v4.6H92.4V.2h5.1v15.3zm12.9 0h6.4V20h-11.5V.2h5.1v15.3zm-23.1 4.1s-.6-.8-7.1-7.8c-.6-.7-1.2-1.3-1.8-1.9 3.3-3.5 5.1-5.6 6-6.6 0 0 .1 0 .1-.1l.1-.1.1-.1.3-.3.1.1.1.2h.1l.1-.1.1-.1.2-.2.1-.1.1-.1.1-.1.1-.1s.1-.1.1-.2l.1-.2s.1-.1.1-.2c0 0 .1-.1.1-.2l.1-.2.1-.2.1-.2.1-.2.1-.2.1-.2.1-.2.1-.3c-1.8.9-2.9 2.2-2.9 2.2s.1.1.3.2l-.4.4s-.1 0-.1.1l-.1.1c-.9.9-2.9 2.9-6.2 6.5-3.3-3.5-5.2-5.5-6.1-6.4v-.1l-.1-.1-.4-.4c.2-.1.3-.2.3-.2s-1-1-2.8-2l.1.2.1.2.1.2.1.2.1.2.1.2.1.2.1.2.1.2.1.2.1.1.1.1.1.1.1.1.1.1.1.1.1.1.1.1.1.1.1.1s0-.1.1-.1c0 0 0-.1.1-.1l.4.4s0 .1.1.1l.1.1c.9 1 2.7 3.1 6 6.6-.6.6-1.1 1.2-1.8 1.9-6.5 6.9-7.1 7.8-7.1 7.8v.1l.3.3s.7-.6 7.2-7.6c.6-.7 1.2-1.3 1.8-1.9.6.6 1.2 1.2 1.8 1.9 6.5 7 7.2 7.6 7.2 7.6l.3-.5zM84.5 2.2s1-1.1 2.6-2c-.3.3-.8.9-1.3 1.4-.1-.1-.2-.1-.3 0l-.7.8c-.2-.1-.3-.2-.3-.2zm1-.6c.1-.1.2-.1.2 0h-.1l-.7.8-.4.4-.1-.1 1.1-1.1zm-1.3 1.3c0-.1.1-.1 0 0l.2.1v.1s-.1.1-.1 0l-.1-.2c-.1 0 0 0 0 0zM68.9.2c1.6.9 2.6 2 2.6 2s-.1.1-.3.2l-.7-.8c-.1-.1-.2-.1-.3 0-.4-.5-1-1.1-1.3-1.4zM71.5 3s.1 0 0 0l-.5-.6-.7-.7h-.1c.1-.1.2-.1.2 0l1.1 1.2V3zm.1 0l.1-.1h.1s.1.1 0 .1l-.1.1-.1-.1zm1.5 1.6l-1.4-1.5.1-.1c.3.4.8.9 1.3 1.6 1.2 1 2.7 2.7 4.8 4.9-.1 0-.2.1-.2.1l-4.6-5zm-4.2 15s0 .1 0 0 .2-.4 1-1.3c1-1.1 2.7-3 6-6.5 3.2-3.5 5.5-5.8 6.9-7.3.6-.7 1.1-1.1 1.4-1.5l.1.1-1.4 1.5-4.7 5-.1.1-.4.4L76 12l-7.1 7.6zM86 18.5L80 12l-1.7-1.8s.1-.1.2-.1c.5.5 1.1 1.1 1.6 1.7 3.2 3.5 5 5.4 6 6.5.8.9 1 1.2 1.1 1.2l-.1.1"/><text transform="translate(.917 7.896)"><tspan x="0" y="0" font-family="'Verdana'" font-size="9">Мы сделали</tspan><tspan x="0" y="10.8" font-family="'Verdana'" font-size="9">этот сайт</tspan></text></svg>