<?xml version="1.0" encoding="utf-8"?>
<!-- Generator: Adobe Illustrator 18.1.1, SVG Export Plug-In . SVG Version: 6.00 Build 0)  -->
<svg fill="#333333" version="1.0" id="Layer_1" xmlns="http://www.w3.org/2000/svg" xmlns:xlink="http://www.w3.org/1999/xlink" x="0px" y="0px"
	 viewBox="0 0 117 20" enable-background="new 0 0 117 20" xml:space="preserve">
<g>
	<path d="M97.5,15.5h6.4c0,1.7,0,2.9,0,4.6c-4.1,0-7.5,0-11.5,0V0.2c1.7,0,3.4,0,5.1,0C97.5,10.5,97.5,7,97.5,15.5z"/>
	<path d="M110.4,15.5h6.4c0,1.7,0,2.9,0,4.5c-4.1,0-7.5,0-11.5,0V0.2c1.7,0,3.4,0,5.1,0C110.4,10.5,110.4,7,110.4,15.5z"/>
	<path d="M87.3,19.6c0,0-0.6-0.8-7.1-7.8c-0.6-0.7-1.2-1.3-1.8-1.9c3.3-3.5,5.1-5.6,6-6.6l0,0c0,0,0.1,0,0.1-0.1
		c0,0,0.1-0.1,0.1-0.1l0,0l0.1-0.1h0l0.3-0.3h0l0,0c0,0,0.1,0.1,0.1,0.1c0,0,0.1,0.2,0.1,0.2c0,0,0,0,0,0l0,0L85.3,3
		c0,0,0.1-0.1,0.1-0.1c0,0,0.1-0.1,0.1-0.1c0,0,0.2-0.2,0.2-0.2c0,0,0.1-0.1,0.1-0.1c0,0,0,0,0,0c0,0,0.1-0.1,0.1-0.1c0,0,0,0,0,0
		c0,0,0.1-0.1,0.1-0.1c0,0,0.1-0.1,0.1-0.1c0,0,0.1-0.1,0.1-0.2l0,0c0,0,0.1-0.2,0.1-0.2c0,0,0.1-0.1,0.1-0.2l0,0
		c0,0,0.1-0.1,0.1-0.2c0,0,0,0,0,0c0,0,0.1-0.2,0.1-0.2c0,0,0.1-0.2,0.1-0.2c0,0,0.1-0.2,0.1-0.2c0,0,0.1-0.2,0.1-0.2
		c0,0,0.1-0.2,0.1-0.2l0,0c0,0,0.1-0.2,0.1-0.2c0,0,0,0,0,0c0,0,0.1-0.2,0.1-0.2c0,0,0,0,0,0c0,0,0.1-0.3,0.1-0.3c0,0,0,0,0,0
		c0,0,0,0,0,0c0,0,0,0,0,0c0,0,0,0,0,0c-1.8,0.9-2.9,2.2-2.9,2.2s0.1,0.1,0.3,0.2l-0.4,0.4l0,0c0,0-0.1,0-0.1,0.1
		c0,0-0.1,0.1-0.1,0.1l0,0c-0.9,0.9-2.9,2.9-6.2,6.5c-3.3-3.5-5.2-5.5-6.1-6.4l0,0c0,0,0-0.1,0-0.1c0,0-0.1-0.1-0.1-0.1l0,0
		l-0.4-0.4c0.2-0.1,0.3-0.2,0.3-0.2S70.6,1,68.8,0c0,0,0,0,0,0c0,0,0,0,0,0c0,0,0,0,0,0c0,0,0,0,0,0c0,0,0,0,0,0
		c0,0,0.1,0.2,0.1,0.2c0,0,0,0,0,0c0,0,0.1,0.2,0.1,0.2c0,0,0,0,0,0c0,0,0.1,0.2,0.1,0.2c0,0,0,0,0,0c0,0,0.1,0.2,0.1,0.2
		c0,0,0.1,0.2,0.1,0.2c0,0,0,0,0,0c0,0,0.1,0.2,0.1,0.2c0,0,0,0,0,0c0,0,0.1,0.2,0.1,0.2l0,0c0,0,0.1,0.2,0.1,0.2l0,0
		c0,0,0.1,0.2,0.1,0.2c0,0,0.1,0.2,0.1,0.2c0,0,0.1,0.1,0.1,0.1c0,0,0.1,0.1,0.1,0.1l0,0c0,0,0.1,0.1,0.1,0.1h0c0,0,0.1,0.1,0.1,0.1
		v0c0,0,0.1,0.1,0.1,0.1c0,0,0.1,0.1,0.1,0.1c0,0,0.1,0.1,0.1,0.1c0,0,0.1,0.1,0.1,0.1c0,0,0,0,0,0c0,0,0.1,0.1,0.1,0.1
		c0,0,0.1,0.1,0.1,0.1l0,0c0,0,0,0,0,0c0,0,0,0,0,0l0,0c0,0,0,0,0,0c0,0,0,0,0,0c0,0,0,0,0,0c0,0,0,0,0,0c0,0,0,0,0,0
		c0,0,0-0.1,0.1-0.1c0,0,0,0,0,0c0,0,0,0,0,0c0,0,0-0.1,0.1-0.1c0,0,0,0,0,0c0,0,0,0,0,0c0,0,0,0,0,0c0,0,0,0,0,0c0,0,0,0,0,0
		l0.4,0.4c0,0,0,0,0,0h0l0,0v0l0,0l0,0c0,0,0,0.1,0.1,0.1c0,0,0.1,0.1,0.1,0.1l0,0c0.9,1,2.7,3.1,6,6.6c-0.6,0.6-1.1,1.2-1.8,1.9
		c-6.5,6.9-7.1,7.8-7.1,7.8c0,0,0,0,0,0.1l0.3,0.3c0,0,0,0,0,0c0,0,0,0,0,0c0,0,0.7-0.6,7.2-7.6c0.6-0.7,1.2-1.3,1.8-1.9
		c0.6,0.6,1.2,1.2,1.8,1.9c6.5,7,7.2,7.6,7.2,7.6c0,0,0,0,0,0c0,0,0,0,0,0L87.3,19.6C87.3,19.6,87.3,19.6,87.3,19.6z M84.5,2.2
		c0,0,1-1.1,2.6-2c-0.3,0.3-0.8,0.9-1.3,1.4h0l0,0c-0.1-0.1-0.2-0.1-0.3,0l-0.7,0.8C84.6,2.3,84.5,2.2,84.5,2.2z M85.5,1.6
		c0.1-0.1,0.2-0.1,0.2,0c0,0,0,0,0,0c0,0-0.1,0-0.1,0l0,0l0,0l-0.7,0.8l-0.4,0.4l0,0l-0.1-0.1L85.5,1.6z M84.2,2.9
		C84.2,2.8,84.3,2.8,84.2,2.9L84.4,3c0,0,0,0,0,0.1c0,0-0.1,0.1-0.1,0L84.2,2.9C84.1,2.9,84.2,2.9,84.2,2.9z M68.9,0.2
		c1.6,0.9,2.6,2,2.6,2s-0.1,0.1-0.3,0.2l-0.7-0.8c-0.1-0.1-0.2-0.1-0.3,0C69.8,1.1,69.2,0.5,68.9,0.2z M71.5,3C71.5,3,71.6,3,71.5,3
		l-0.5-0.6l-0.7-0.7l0,0c0,0-0.1,0-0.1,0c0,0,0,0,0,0c0.1-0.1,0.2-0.1,0.2,0l1.1,1.2L71.5,3z M71.6,3l0.1-0.1c0,0,0,0,0.1,0
		c0,0,0.1,0.1,0,0.1l-0.1,0.1C71.7,3.1,71.7,3.1,71.6,3C71.6,3,71.6,3,71.6,3z M73.1,4.6l-1.4-1.5c0,0,0,0,0,0l0.1-0.1
		C72.1,3.4,72.6,3.9,73.1,4.6c1.2,1,2.7,2.7,4.8,4.9c-0.1,0-0.2,0.1-0.2,0.1l0,0L73.1,4.6z M68.9,19.6
		C68.9,19.6,68.9,19.7,68.9,19.6L68.9,19.6c0-0.1,0.2-0.4,1-1.3c1-1.1,2.7-3,6-6.5c3.2-3.5,5.5-5.8,6.9-7.3c0.6-0.7,1.1-1.1,1.4-1.5
		l0.1,0.1l0,0l0,0l-1.4,1.5l-4.7,5l-0.1,0.1l-0.4,0.4L76,12L68.9,19.6z M86,18.5L80,12l-1.7-1.8c0,0,0.1-0.1,0.2-0.1
		c0.5,0.5,1.1,1.1,1.6,1.7c3.2,3.5,5,5.4,6,6.5c0.8,0.9,1,1.2,1.1,1.2l-0.1,0.1c0,0,0,0,0,0l0,0"/>
</g>
<text transform="matrix(1 0 0 1 0.9167 7.8957)"><tspan x="0" y="0" font-family="'Verdana'" font-size="9">Мы сделали</tspan><tspan x="0" y="10.8" font-family="'Verdana'" font-size="9">этот сайт</tspan></text>
</svg>
